<svg xmlns="http://www.w3.org/2000/svg" xmlns:xlink="http://www.w3.org/1999/xlink" width="1080" zoomAndPan="magnify" viewBox="0 0 810 374.999991" height="500" preserveAspectRatio="xMidYMid meet" version="1.0"><defs><g/><clipPath id="59c9f0cd69"><path d="M 74.414062 89.023438 L 196.664062 89.023438 L 196.664062 266.773438 L 74.414062 266.773438 Z M 74.414062 89.023438 " clip-rule="nonzero"/></clipPath><clipPath id="34895f8319"><path d="M 326.496094 148.179688 L 344.289062 148.179688 L 344.289062 224.617188 L 326.496094 224.617188 Z M 326.496094 148.179688 " clip-rule="nonzero"/></clipPath><clipPath id="2c965c5f8b"><path d="M 0.496094 0.179688 L 18.289062 0.179688 L 18.289062 76.617188 L 0.496094 76.617188 Z M 0.496094 0.179688 " clip-rule="nonzero"/></clipPath><clipPath id="7aeb7ef9c1"><rect x="0" width="19" y="0" height="77"/></clipPath><clipPath id="9f4de461c6"><path d="M 326.496094 231.832031 L 346.6875 231.832031 L 346.6875 252.023438 L 326.496094 252.023438 Z M 326.496094 231.832031 " clip-rule="nonzero"/></clipPath><clipPath id="e5b5fca125"><path d="M 336.589844 231.832031 C 331.015625 231.832031 326.496094 236.351562 326.496094 241.929688 C 326.496094 247.503906 331.015625 252.023438 336.589844 252.023438 C 342.167969 252.023438 346.6875 247.503906 346.6875 241.929688 C 346.6875 236.351562 342.167969 231.832031 336.589844 231.832031 Z M 336.589844 231.832031 " clip-rule="nonzero"/></clipPath><clipPath id="7084003a4c"><path d="M 0.496094 0.832031 L 20.6875 0.832031 L 20.6875 21.023438 L 0.496094 21.023438 Z M 0.496094 0.832031 " clip-rule="nonzero"/></clipPath><clipPath id="6fcb9cd4f7"><path d="M 10.589844 0.832031 C 5.015625 0.832031 0.496094 5.351562 0.496094 10.929688 C 0.496094 16.503906 5.015625 21.023438 10.589844 21.023438 C 16.167969 21.023438 20.6875 16.503906 20.6875 10.929688 C 20.6875 5.351562 16.167969 0.832031 10.589844 0.832031 Z M 10.589844 0.832031 " clip-rule="nonzero"/></clipPath><clipPath id="0fee8a09ef"><rect x="0" width="21" y="0" height="22"/></clipPath></defs><rect x="-81" width="972" fill="#ffffff" y="-37.499999" height="449.999989" fill-opacity="1"/><rect x="-81" width="972" fill="#000000" y="-37.499999" height="449.999989" fill-opacity="1"/><g clip-path="url(#59c9f0cd69)"><path fill="#ffffff" d="M 117.316406 251.027344 C 118.710938 259.859375 126.371094 266.613281 135.617188 266.613281 C 144.859375 266.613281 152.519531 259.859375 153.914062 251.027344 C 154.027344 250.273438 153.839844 249.558594 153.347656 248.953125 C 152.859375 248.351562 152.179688 248.046875 151.425781 248.046875 L 119.84375 248.046875 C 119.089844 248.046875 118.410156 248.351562 117.917969 248.953125 C 117.390625 249.558594 117.203125 250.238281 117.316406 251.027344 Z M 155.765625 219.597656 C 161.613281 219.597656 166.367188 224.351562 166.367188 230.199219 C 166.367188 236.050781 161.613281 240.804688 155.765625 240.804688 L 115.464844 240.804688 C 109.617188 240.804688 104.863281 236.050781 104.863281 230.199219 C 104.863281 226.691406 106.601562 223.558594 109.242188 221.636719 L 151.011719 189.109375 C 154.140625 186.65625 157.5 183.941406 160.746094 181.527344 C 165.273438 177.867188 169.007812 173.226562 171.613281 167.980469 C 174.175781 162.734375 175.648438 156.738281 175.648438 150.359375 C 175.648438 139.304688 171.160156 129.304688 163.914062 122.0625 C 156.671875 114.816406 146.671875 110.328125 135.617188 110.328125 C 124.558594 110.328125 114.5625 114.816406 107.316406 122.0625 C 100.070312 129.304688 95.582031 139.304688 95.582031 150.359375 C 95.582031 158.019531 97.695312 165.152344 101.355469 171.148438 C 105.164062 177.414062 110.675781 182.582031 117.238281 185.941406 C 122.410156 188.621094 124.445312 194.996094 121.804688 200.167969 C 119.125 205.335938 112.75 207.371094 107.582031 204.730469 C 97.582031 199.5625 89.167969 191.714844 83.320312 182.128906 C 77.695312 172.847656 74.414062 161.980469 74.414062 150.359375 C 74.414062 133.457031 81.28125 118.175781 92.335938 107.082031 C 103.429688 96.027344 118.710938 89.160156 135.617188 89.160156 C 152.519531 89.160156 167.800781 96.027344 178.894531 107.082031 C 189.949219 118.136719 196.816406 133.457031 196.816406 150.359375 C 196.816406 159.945312 194.554688 169.074219 190.554688 177.261719 C 186.554688 185.375 180.855469 192.46875 173.914062 198.089844 C 170.480469 200.957031 166.179688 204.164062 162.632812 206.921875 L 146.332031 219.597656 Z M 155.765625 219.597656 " fill-opacity="1" fill-rule="evenodd"/></g><g fill="#000000" fill-opacity="0.4"><g transform="translate(196.82698, 234.275243)"><g><path d="M 36.328125 -83.84375 C 40.785156 -83.84375 45.144531 -83.191406 49.40625 -81.890625 C 53.664062 -80.597656 56.828125 -79.316406 58.890625 -78.046875 L 61.890625 -76.0625 L 54.296875 -61.078125 C 53.703125 -61.484375 52.867188 -62 51.796875 -62.625 C 50.734375 -63.257812 48.738281 -64.109375 45.8125 -65.171875 C 42.882812 -66.242188 40.15625 -66.78125 37.625 -66.78125 C 34.5 -66.78125 32.085938 -66.113281 30.390625 -64.78125 C 28.691406 -63.445312 27.84375 -61.648438 27.84375 -59.390625 C 27.84375 -58.253906 28.242188 -57.203125 29.046875 -56.234375 C 29.847656 -55.273438 31.210938 -54.242188 33.140625 -53.140625 C 35.066406 -52.046875 36.757812 -51.164062 38.21875 -50.5 C 39.6875 -49.832031 41.953125 -48.835938 45.015625 -47.515625 C 50.335938 -45.242188 54.878906 -42.160156 58.640625 -38.265625 C 62.398438 -34.378906 64.28125 -29.972656 64.28125 -25.046875 C 64.28125 -20.328125 63.429688 -16.203125 61.734375 -12.671875 C 60.035156 -9.148438 57.707031 -6.390625 54.75 -4.390625 C 51.789062 -2.390625 48.515625 -0.910156 44.921875 0.046875 C 41.328125 1.015625 37.429688 1.5 33.234375 1.5 C 29.640625 1.5 26.113281 1.128906 22.65625 0.390625 C 19.195312 -0.335938 16.300781 -1.25 13.96875 -2.34375 C 11.644531 -3.445312 9.550781 -4.53125 7.6875 -5.59375 C 5.820312 -6.65625 4.457031 -7.550781 3.59375 -8.28125 L 2.296875 -9.375 L 11.671875 -25.15625 C 12.472656 -24.488281 13.570312 -23.640625 14.96875 -22.609375 C 16.363281 -21.578125 18.84375 -20.195312 22.40625 -18.46875 C 25.96875 -16.738281 29.113281 -15.875 31.84375 -15.875 C 39.757812 -15.875 43.71875 -18.566406 43.71875 -23.953125 C 43.71875 -25.085938 43.429688 -26.132812 42.859375 -27.09375 C 42.296875 -28.0625 41.300781 -29.023438 39.875 -29.984375 C 38.445312 -30.953125 37.179688 -31.71875 36.078125 -32.28125 C 34.984375 -32.851562 33.1875 -33.71875 30.6875 -34.875 C 28.195312 -36.039062 26.351562 -36.925781 25.15625 -37.53125 C 20.164062 -39.988281 16.304688 -43.0625 13.578125 -46.75 C 10.847656 -50.445312 9.484375 -54.425781 9.484375 -58.6875 C 9.484375 -66.070312 12.207031 -72.109375 17.65625 -76.796875 C 23.113281 -81.492188 29.335938 -83.84375 36.328125 -83.84375 Z M 36.328125 -83.84375 "/></g></g></g><g fill="#000000" fill-opacity="0.4"><g transform="translate(259.506633, 234.275243)"><g><path d="M 64.484375 -51.203125 L 40.125 -26.75 L 66.875 0 L 44.109375 0 L 23.65625 -20.46875 L 23.65625 0 L 5.984375 0 L 5.984375 -85.84375 L 23.65625 -85.84375 L 23.65625 -33.34375 L 41.515625 -51.203125 Z M 64.484375 -51.203125 "/></g></g></g><g fill="#000000" fill-opacity="0.4"><g transform="translate(319.591258, 234.275243)"><g/></g></g><g fill="#000000" fill-opacity="0.4"><g transform="translate(342.447294, 234.275243)"><g><path d="M 5.984375 0 L 5.984375 -85.84375 L 23.65625 -85.84375 L 23.65625 0 Z M 5.984375 0 "/></g></g></g><g fill="#000000" fill-opacity="0.4"><g transform="translate(367.698738, 234.275243)"><g><path d="M 5.984375 0 L 5.984375 -85.84375 L 23.65625 -85.84375 L 23.65625 0 Z M 5.984375 0 "/></g></g></g><g fill="#000000" fill-opacity="0.4"><g transform="translate(392.950181, 234.275243)"><g><path d="M 58.6875 -44.859375 C 63.476562 -39.640625 65.875 -33.234375 65.875 -25.640625 C 65.875 -18.054688 63.476562 -11.632812 58.6875 -6.375 C 53.894531 -1.125 47.804688 1.5 40.421875 1.5 C 33.640625 1.5 28.050781 -0.628906 23.65625 -4.890625 L 23.65625 25.953125 L 5.984375 25.953125 L 5.984375 -51.203125 L 23.453125 -51.203125 L 23.453125 -45.421875 L 23.65625 -45.421875 C 28.050781 -50.273438 33.640625 -52.703125 40.421875 -52.703125 C 47.804688 -52.703125 53.894531 -50.085938 58.6875 -44.859375 Z M 43.65625 -16.96875 C 45.957031 -19.226562 47.109375 -22.117188 47.109375 -25.640625 C 47.109375 -29.171875 46.007812 -32.050781 43.8125 -34.28125 C 41.625 -36.507812 38.734375 -37.625 35.140625 -37.625 C 31.671875 -37.625 28.820312 -36.492188 26.59375 -34.234375 C 24.363281 -31.972656 23.25 -29.113281 23.25 -25.65625 C 23.25 -22.125 24.394531 -19.226562 26.6875 -16.96875 C 28.988281 -14.707031 31.804688 -13.578125 35.140625 -13.578125 C 38.523438 -13.578125 41.363281 -14.707031 43.65625 -16.96875 Z M 43.65625 -16.96875 "/></g></g></g><g fill="#000000" fill-opacity="0.4"><g transform="translate(456.727734, 234.275243)"><g><path d="M 5.984375 0 L 5.984375 -51.203125 L 23.65625 -51.203125 L 23.65625 -43.8125 L 23.859375 -43.8125 C 23.992188 -44.082031 24.207031 -44.414062 24.5 -44.8125 C 24.800781 -45.21875 25.453125 -45.914062 26.453125 -46.90625 C 27.453125 -47.90625 28.515625 -48.800781 29.640625 -49.59375 C 30.773438 -50.394531 32.238281 -51.113281 34.03125 -51.75 C 35.832031 -52.382812 37.664062 -52.703125 39.53125 -52.703125 C 41.457031 -52.703125 43.351562 -52.4375 45.21875 -51.90625 C 47.082031 -51.375 48.445312 -50.84375 49.3125 -50.3125 L 50.703125 -49.5 L 43.3125 -34.53125 C 41.125 -36.394531 38.066406 -37.328125 34.140625 -37.328125 C 32.003906 -37.328125 30.171875 -36.859375 28.640625 -35.921875 C 27.109375 -34.992188 26.023438 -33.863281 25.390625 -32.53125 C 24.765625 -31.207031 24.316406 -30.078125 24.046875 -29.140625 C 23.785156 -28.210938 23.65625 -27.484375 23.65625 -26.953125 L 23.65625 0 Z M 5.984375 0 "/></g></g></g><g fill="#000000" fill-opacity="0.4"><g transform="translate(502.040682, 234.275243)"><g><path d="M 10.828125 -6.078125 C 5.140625 -11.140625 2.296875 -17.628906 2.296875 -25.546875 C 2.296875 -33.472656 5.253906 -39.976562 11.171875 -45.0625 C 17.097656 -50.15625 24.421875 -52.703125 33.140625 -52.703125 C 41.722656 -52.703125 48.957031 -50.140625 54.84375 -45.015625 C 60.738281 -39.890625 63.6875 -33.398438 63.6875 -25.546875 C 63.6875 -17.703125 60.804688 -11.234375 55.046875 -6.140625 C 49.285156 -1.046875 41.984375 1.5 33.140625 1.5 C 23.953125 1.5 16.515625 -1.023438 10.828125 -6.078125 Z M 24.5 -34.234375 C 22.207031 -31.972656 21.0625 -29.078125 21.0625 -25.546875 C 21.0625 -22.023438 22.15625 -19.148438 24.34375 -16.921875 C 26.539062 -14.691406 29.4375 -13.578125 33.03125 -13.578125 C 36.5 -13.578125 39.347656 -14.707031 41.578125 -16.96875 C 43.804688 -19.226562 44.921875 -22.085938 44.921875 -25.546875 C 44.921875 -29.078125 43.769531 -31.972656 41.46875 -34.234375 C 39.175781 -36.492188 36.363281 -37.625 33.03125 -37.625 C 29.644531 -37.625 26.800781 -36.492188 24.5 -34.234375 Z M 24.5 -34.234375 "/></g></g></g><g fill="#000000" fill-opacity="0.4"><g transform="translate(563.622457, 234.275243)"><g><path d="M 58.6875 -44.8125 C 63.476562 -39.5625 65.875 -33.140625 65.875 -25.546875 C 65.875 -17.960938 63.476562 -11.554688 58.6875 -6.328125 C 53.894531 -1.109375 47.804688 1.5 40.421875 1.5 C 33.640625 1.5 28.050781 -0.929688 23.65625 -5.796875 L 23.453125 -5.796875 L 23.453125 0 L 5.984375 0 L 5.984375 -85.84375 L 23.65625 -85.84375 L 23.65625 -46.3125 C 28.050781 -50.570312 33.640625 -52.703125 40.421875 -52.703125 C 47.804688 -52.703125 53.894531 -50.070312 58.6875 -44.8125 Z M 43.8125 -16.921875 C 46.007812 -19.148438 47.109375 -22.023438 47.109375 -25.546875 C 47.109375 -29.078125 45.957031 -31.972656 43.65625 -34.234375 C 41.363281 -36.492188 38.523438 -37.625 35.140625 -37.625 C 31.804688 -37.625 28.988281 -36.492188 26.6875 -34.234375 C 24.394531 -31.972656 23.25 -29.078125 23.25 -25.546875 C 23.25 -22.085938 24.363281 -19.226562 26.59375 -16.96875 C 28.820312 -14.707031 31.671875 -13.578125 35.140625 -13.578125 C 38.734375 -13.578125 41.625 -14.691406 43.8125 -16.921875 Z M 43.8125 -16.921875 "/></g></g></g><g fill="#000000" fill-opacity="0.4"><g transform="translate(627.40001, 234.275243)"><g><path d="M 57.796875 -23.15625 L 20.65625 -23.15625 C 20.65625 -19.5625 21.816406 -16.898438 24.140625 -15.171875 C 26.472656 -13.441406 29.003906 -12.578125 31.734375 -12.578125 C 34.597656 -12.578125 36.859375 -12.957031 38.515625 -13.71875 C 40.179688 -14.488281 42.082031 -16.003906 44.21875 -18.265625 L 57 -11.875 C 51.675781 -2.957031 42.820312 1.5 30.4375 1.5 C 22.71875 1.5 16.097656 -1.144531 10.578125 -6.4375 C 5.054688 -11.726562 2.296875 -18.097656 2.296875 -25.546875 C 2.296875 -33.003906 5.054688 -39.394531 10.578125 -44.71875 C 16.097656 -50.039062 22.71875 -52.703125 30.4375 -52.703125 C 38.5625 -52.703125 45.164062 -50.351562 50.25 -45.65625 C 55.34375 -40.96875 57.890625 -34.265625 57.890625 -25.546875 C 57.890625 -24.347656 57.859375 -23.550781 57.796875 -23.15625 Z M 21.15625 -32.9375 L 40.625 -32.9375 C 40.226562 -35.601562 39.179688 -37.648438 37.484375 -39.078125 C 35.785156 -40.503906 33.601562 -41.21875 30.9375 -41.21875 C 28.007812 -41.21875 25.679688 -40.453125 23.953125 -38.921875 C 22.222656 -37.390625 21.289062 -35.394531 21.15625 -32.9375 Z M 21.15625 -32.9375 "/></g></g></g><g fill="#ffffff" fill-opacity="1"><g transform="translate(196.82698, 234.275243)"><g><path d="M 36.328125 -83.84375 C 40.785156 -83.84375 45.144531 -83.191406 49.40625 -81.890625 C 53.664062 -80.597656 56.828125 -79.316406 58.890625 -78.046875 L 61.890625 -76.0625 L 54.296875 -61.078125 C 53.703125 -61.484375 52.867188 -62 51.796875 -62.625 C 50.734375 -63.257812 48.738281 -64.109375 45.8125 -65.171875 C 42.882812 -66.242188 40.15625 -66.78125 37.625 -66.78125 C 34.5 -66.78125 32.085938 -66.113281 30.390625 -64.78125 C 28.691406 -63.445312 27.84375 -61.648438 27.84375 -59.390625 C 27.84375 -58.253906 28.242188 -57.203125 29.046875 -56.234375 C 29.847656 -55.273438 31.210938 -54.242188 33.140625 -53.140625 C 35.066406 -52.046875 36.757812 -51.164062 38.21875 -50.5 C 39.6875 -49.832031 41.953125 -48.835938 45.015625 -47.515625 C 50.335938 -45.242188 54.878906 -42.160156 58.640625 -38.265625 C 62.398438 -34.378906 64.28125 -29.972656 64.28125 -25.046875 C 64.28125 -20.328125 63.429688 -16.203125 61.734375 -12.671875 C 60.035156 -9.148438 57.707031 -6.390625 54.75 -4.390625 C 51.789062 -2.390625 48.515625 -0.910156 44.921875 0.046875 C 41.328125 1.015625 37.429688 1.5 33.234375 1.5 C 29.640625 1.5 26.113281 1.128906 22.65625 0.390625 C 19.195312 -0.335938 16.300781 -1.25 13.96875 -2.34375 C 11.644531 -3.445312 9.550781 -4.53125 7.6875 -5.59375 C 5.820312 -6.65625 4.457031 -7.550781 3.59375 -8.28125 L 2.296875 -9.375 L 11.671875 -25.15625 C 12.472656 -24.488281 13.570312 -23.640625 14.96875 -22.609375 C 16.363281 -21.578125 18.84375 -20.195312 22.40625 -18.46875 C 25.96875 -16.738281 29.113281 -15.875 31.84375 -15.875 C 39.757812 -15.875 43.71875 -18.566406 43.71875 -23.953125 C 43.71875 -25.085938 43.429688 -26.132812 42.859375 -27.09375 C 42.296875 -28.0625 41.300781 -29.023438 39.875 -29.984375 C 38.445312 -30.953125 37.179688 -31.71875 36.078125 -32.28125 C 34.984375 -32.851562 33.1875 -33.71875 30.6875 -34.875 C 28.195312 -36.039062 26.351562 -36.925781 25.15625 -37.53125 C 20.164062 -39.988281 16.304688 -43.0625 13.578125 -46.75 C 10.847656 -50.445312 9.484375 -54.425781 9.484375 -58.6875 C 9.484375 -66.070312 12.207031 -72.109375 17.65625 -76.796875 C 23.113281 -81.492188 29.335938 -83.84375 36.328125 -83.84375 Z M 36.328125 -83.84375 "/></g></g></g><g fill="#ffffff" fill-opacity="1"><g transform="translate(259.506633, 234.275243)"><g><path d="M 64.484375 -51.203125 L 40.125 -26.75 L 66.875 0 L 44.109375 0 L 23.65625 -20.46875 L 23.65625 0 L 5.984375 0 L 5.984375 -85.84375 L 23.65625 -85.84375 L 23.65625 -33.34375 L 41.515625 -51.203125 Z M 64.484375 -51.203125 "/></g></g></g><g fill="#ffffff" fill-opacity="1"><g transform="translate(319.591258, 234.275243)"><g/></g></g><g fill="#ffffff" fill-opacity="1"><g transform="translate(342.447294, 234.275243)"><g><path d="M 5.984375 0 L 5.984375 -85.84375 L 23.65625 -85.84375 L 23.65625 0 Z M 5.984375 0 "/></g></g></g><g fill="#ffffff" fill-opacity="1"><g transform="translate(367.698738, 234.275243)"><g><path d="M 5.984375 0 L 5.984375 -85.84375 L 23.65625 -85.84375 L 23.65625 0 Z M 5.984375 0 "/></g></g></g><g fill="#ffffff" fill-opacity="1"><g transform="translate(392.950181, 234.275243)"><g><path d="M 58.6875 -44.859375 C 63.476562 -39.640625 65.875 -33.234375 65.875 -25.640625 C 65.875 -18.054688 63.476562 -11.632812 58.6875 -6.375 C 53.894531 -1.125 47.804688 1.5 40.421875 1.5 C 33.640625 1.5 28.050781 -0.628906 23.65625 -4.890625 L 23.65625 25.953125 L 5.984375 25.953125 L 5.984375 -51.203125 L 23.453125 -51.203125 L 23.453125 -45.421875 L 23.65625 -45.421875 C 28.050781 -50.273438 33.640625 -52.703125 40.421875 -52.703125 C 47.804688 -52.703125 53.894531 -50.085938 58.6875 -44.859375 Z M 43.65625 -16.96875 C 45.957031 -19.226562 47.109375 -22.117188 47.109375 -25.640625 C 47.109375 -29.171875 46.007812 -32.050781 43.8125 -34.28125 C 41.625 -36.507812 38.734375 -37.625 35.140625 -37.625 C 31.671875 -37.625 28.820312 -36.492188 26.59375 -34.234375 C 24.363281 -31.972656 23.25 -29.113281 23.25 -25.65625 C 23.25 -22.125 24.394531 -19.226562 26.6875 -16.96875 C 28.988281 -14.707031 31.804688 -13.578125 35.140625 -13.578125 C 38.523438 -13.578125 41.363281 -14.707031 43.65625 -16.96875 Z M 43.65625 -16.96875 "/></g></g></g><g fill="#ffffff" fill-opacity="1"><g transform="translate(456.727734, 234.275243)"><g><path d="M 5.984375 0 L 5.984375 -51.203125 L 23.65625 -51.203125 L 23.65625 -43.8125 L 23.859375 -43.8125 C 23.992188 -44.082031 24.207031 -44.414062 24.5 -44.8125 C 24.800781 -45.21875 25.453125 -45.914062 26.453125 -46.90625 C 27.453125 -47.90625 28.515625 -48.800781 29.640625 -49.59375 C 30.773438 -50.394531 32.238281 -51.113281 34.03125 -51.75 C 35.832031 -52.382812 37.664062 -52.703125 39.53125 -52.703125 C 41.457031 -52.703125 43.351562 -52.4375 45.21875 -51.90625 C 47.082031 -51.375 48.445312 -50.84375 49.3125 -50.3125 L 50.703125 -49.5 L 43.3125 -34.53125 C 41.125 -36.394531 38.066406 -37.328125 34.140625 -37.328125 C 32.003906 -37.328125 30.171875 -36.859375 28.640625 -35.921875 C 27.109375 -34.992188 26.023438 -33.863281 25.390625 -32.53125 C 24.765625 -31.207031 24.316406 -30.078125 24.046875 -29.140625 C 23.785156 -28.210938 23.65625 -27.484375 23.65625 -26.953125 L 23.65625 0 Z M 5.984375 0 "/></g></g></g><g fill="#ffffff" fill-opacity="1"><g transform="translate(502.040682, 234.275243)"><g><path d="M 10.828125 -6.078125 C 5.140625 -11.140625 2.296875 -17.628906 2.296875 -25.546875 C 2.296875 -33.472656 5.253906 -39.976562 11.171875 -45.0625 C 17.097656 -50.15625 24.421875 -52.703125 33.140625 -52.703125 C 41.722656 -52.703125 48.957031 -50.140625 54.84375 -45.015625 C 60.738281 -39.890625 63.6875 -33.398438 63.6875 -25.546875 C 63.6875 -17.703125 60.804688 -11.234375 55.046875 -6.140625 C 49.285156 -1.046875 41.984375 1.5 33.140625 1.5 C 23.953125 1.5 16.515625 -1.023438 10.828125 -6.078125 Z M 24.5 -34.234375 C 22.207031 -31.972656 21.0625 -29.078125 21.0625 -25.546875 C 21.0625 -22.023438 22.15625 -19.148438 24.34375 -16.921875 C 26.539062 -14.691406 29.4375 -13.578125 33.03125 -13.578125 C 36.5 -13.578125 39.347656 -14.707031 41.578125 -16.96875 C 43.804688 -19.226562 44.921875 -22.085938 44.921875 -25.546875 C 44.921875 -29.078125 43.769531 -31.972656 41.46875 -34.234375 C 39.175781 -36.492188 36.363281 -37.625 33.03125 -37.625 C 29.644531 -37.625 26.800781 -36.492188 24.5 -34.234375 Z M 24.5 -34.234375 "/></g></g></g><g fill="#ffffff" fill-opacity="1"><g transform="translate(563.622457, 234.275243)"><g><path d="M 58.6875 -44.8125 C 63.476562 -39.5625 65.875 -33.140625 65.875 -25.546875 C 65.875 -17.960938 63.476562 -11.554688 58.6875 -6.328125 C 53.894531 -1.109375 47.804688 1.5 40.421875 1.5 C 33.640625 1.5 28.050781 -0.929688 23.65625 -5.796875 L 23.453125 -5.796875 L 23.453125 0 L 5.984375 0 L 5.984375 -85.84375 L 23.65625 -85.84375 L 23.65625 -46.3125 C 28.050781 -50.570312 33.640625 -52.703125 40.421875 -52.703125 C 47.804688 -52.703125 53.894531 -50.070312 58.6875 -44.8125 Z M 43.8125 -16.921875 C 46.007812 -19.148438 47.109375 -22.023438 47.109375 -25.546875 C 47.109375 -29.078125 45.957031 -31.972656 43.65625 -34.234375 C 41.363281 -36.492188 38.523438 -37.625 35.140625 -37.625 C 31.804688 -37.625 28.988281 -36.492188 26.6875 -34.234375 C 24.394531 -31.972656 23.25 -29.078125 23.25 -25.546875 C 23.25 -22.085938 24.363281 -19.226562 26.59375 -16.96875 C 28.820312 -14.707031 31.671875 -13.578125 35.140625 -13.578125 C 38.734375 -13.578125 41.625 -14.691406 43.8125 -16.921875 Z M 43.8125 -16.921875 "/></g></g></g><g fill="#ffffff" fill-opacity="1"><g transform="translate(627.40001, 234.275243)"><g><path d="M 57.796875 -23.15625 L 20.65625 -23.15625 C 20.65625 -19.5625 21.816406 -16.898438 24.140625 -15.171875 C 26.472656 -13.441406 29.003906 -12.578125 31.734375 -12.578125 C 34.597656 -12.578125 36.859375 -12.957031 38.515625 -13.71875 C 40.179688 -14.488281 42.082031 -16.003906 44.21875 -18.265625 L 57 -11.875 C 51.675781 -2.957031 42.820312 1.5 30.4375 1.5 C 22.71875 1.5 16.097656 -1.144531 10.578125 -6.4375 C 5.054688 -11.726562 2.296875 -18.097656 2.296875 -25.546875 C 2.296875 -33.003906 5.054688 -39.394531 10.578125 -44.71875 C 16.097656 -50.039062 22.71875 -52.703125 30.4375 -52.703125 C 38.5625 -52.703125 45.164062 -50.351562 50.25 -45.65625 C 55.34375 -40.96875 57.890625 -34.265625 57.890625 -25.546875 C 57.890625 -24.347656 57.859375 -23.550781 57.796875 -23.15625 Z M 21.15625 -32.9375 L 40.625 -32.9375 C 40.226562 -35.601562 39.179688 -37.648438 37.484375 -39.078125 C 35.785156 -40.503906 33.601562 -41.21875 30.9375 -41.21875 C 28.007812 -41.21875 25.679688 -40.453125 23.953125 -38.921875 C 22.222656 -37.390625 21.289062 -35.394531 21.15625 -32.9375 Z M 21.15625 -32.9375 "/></g></g></g><g clip-path="url(#34895f8319)"><g transform="matrix(1, 0, 0, 1, 326, 148)"><g clip-path="url(#7aeb7ef9c1)"><g clip-path="url(#2c965c5f8b)"><path fill="#ffffff" d="M 0.496094 0.179688 L 18.289062 0.179688 L 18.289062 76.628906 L 0.496094 76.628906 Z M 0.496094 0.179688 " fill-opacity="1" fill-rule="nonzero"/></g></g></g></g><g clip-path="url(#9f4de461c6)"><g clip-path="url(#e5b5fca125)"><g transform="matrix(1, 0, 0, 1, 326, 231)"><g clip-path="url(#0fee8a09ef)"><g clip-path="url(#7084003a4c)"><g clip-path="url(#6fcb9cd4f7)"><path fill="#ffffff" d="M 0.496094 0.832031 L 20.6875 0.832031 L 20.6875 21.023438 L 0.496094 21.023438 Z M 0.496094 0.832031 " fill-opacity="1" fill-rule="nonzero"/></g></g></g></g></g></g><g fill="#ffffff" fill-opacity="1"><g transform="translate(237.552928, 300.22085)"><g><path d="M 1.390625 0 L 1.390625 -12.890625 L 6.25 -12.890625 C 7.101562 -12.890625 7.753906 -12.847656 8.203125 -12.765625 C 8.835938 -12.660156 9.367188 -12.457031 9.796875 -12.15625 C 10.222656 -11.863281 10.566406 -11.445312 10.828125 -10.90625 C 11.085938 -10.375 11.21875 -9.789062 11.21875 -9.15625 C 11.21875 -8.0625 10.867188 -7.132812 10.171875 -6.375 C 9.472656 -5.613281 8.21875 -5.234375 6.40625 -5.234375 L 3.09375 -5.234375 L 3.09375 0 Z M 3.09375 -6.765625 L 6.421875 -6.765625 C 7.523438 -6.765625 8.304688 -6.96875 8.765625 -7.375 C 9.234375 -7.78125 9.46875 -8.359375 9.46875 -9.109375 C 9.46875 -9.648438 9.332031 -10.109375 9.0625 -10.484375 C 8.789062 -10.867188 8.429688 -11.125 7.984375 -11.25 C 7.691406 -11.320312 7.160156 -11.359375 6.390625 -11.359375 L 3.09375 -11.359375 Z M 3.09375 -6.765625 "/></g></g></g><g fill="#ffffff" fill-opacity="1"><g transform="translate(256.758779, 300.22085)"><g><path d="M 1.421875 0 L 1.421875 -12.890625 L 7.125 -12.890625 C 8.269531 -12.890625 9.140625 -12.769531 9.734375 -12.53125 C 10.335938 -12.300781 10.816406 -11.894531 11.171875 -11.3125 C 11.535156 -10.726562 11.71875 -10.082031 11.71875 -9.375 C 11.71875 -8.457031 11.421875 -7.6875 10.828125 -7.0625 C 10.234375 -6.4375 9.320312 -6.035156 8.09375 -5.859375 C 8.539062 -5.640625 8.878906 -5.425781 9.109375 -5.21875 C 9.609375 -4.757812 10.082031 -4.1875 10.53125 -3.5 L 12.765625 0 L 10.625 0 L 8.921875 -2.6875 C 8.421875 -3.457031 8.007812 -4.046875 7.6875 -4.453125 C 7.363281 -4.867188 7.070312 -5.15625 6.8125 -5.3125 C 6.5625 -5.476562 6.304688 -5.59375 6.046875 -5.65625 C 5.847656 -5.695312 5.53125 -5.71875 5.09375 -5.71875 L 3.125 -5.71875 L 3.125 0 Z M 3.125 -7.203125 L 6.78125 -7.203125 C 7.5625 -7.203125 8.171875 -7.28125 8.609375 -7.4375 C 9.046875 -7.601562 9.378906 -7.863281 9.609375 -8.21875 C 9.835938 -8.570312 9.953125 -8.957031 9.953125 -9.375 C 9.953125 -9.976562 9.726562 -10.476562 9.28125 -10.875 C 8.84375 -11.269531 8.148438 -11.46875 7.203125 -11.46875 L 3.125 -11.46875 Z M 3.125 -7.203125 "/></g></g></g><g fill="#ffffff" fill-opacity="1"><g transform="translate(276.957794, 300.22085)"><g><path d="M 0.875 -6.28125 C 0.875 -8.414062 1.445312 -10.085938 2.59375 -11.296875 C 3.738281 -12.503906 5.222656 -13.109375 7.046875 -13.109375 C 8.234375 -13.109375 9.300781 -12.820312 10.25 -12.25 C 11.207031 -11.6875 11.9375 -10.894531 12.4375 -9.875 C 12.9375 -8.863281 13.1875 -7.710938 13.1875 -6.421875 C 13.1875 -5.117188 12.921875 -3.953125 12.390625 -2.921875 C 11.867188 -1.890625 11.125 -1.109375 10.15625 -0.578125 C 9.1875 -0.046875 8.144531 0.21875 7.03125 0.21875 C 5.820312 0.21875 4.738281 -0.0703125 3.78125 -0.65625 C 2.820312 -1.238281 2.097656 -2.035156 1.609375 -3.046875 C 1.117188 -4.066406 0.875 -5.144531 0.875 -6.28125 Z M 2.625 -6.25 C 2.625 -4.695312 3.039062 -3.472656 3.875 -2.578125 C 4.71875 -1.679688 5.765625 -1.234375 7.015625 -1.234375 C 8.304688 -1.234375 9.363281 -1.6875 10.1875 -2.59375 C 11.019531 -3.5 11.4375 -4.78125 11.4375 -6.4375 C 11.4375 -7.476562 11.257812 -8.390625 10.90625 -9.171875 C 10.550781 -9.960938 10.03125 -10.570312 9.34375 -11 C 8.664062 -11.425781 7.898438 -11.640625 7.046875 -11.640625 C 5.835938 -11.640625 4.796875 -11.222656 3.921875 -10.390625 C 3.054688 -9.566406 2.625 -8.1875 2.625 -6.25 Z M 2.625 -6.25 "/></g></g></g><g fill="#ffffff" fill-opacity="1"><g transform="translate(298.158762, 300.22085)"><g><path d="M 1.3125 0 L 1.3125 -12.890625 L 6.15625 -12.890625 C 7.132812 -12.890625 7.921875 -12.757812 8.515625 -12.5 C 9.109375 -12.238281 9.570312 -11.835938 9.90625 -11.296875 C 10.25 -10.753906 10.421875 -10.1875 10.421875 -9.59375 C 10.421875 -9.039062 10.269531 -8.519531 9.96875 -8.03125 C 9.675781 -7.539062 9.226562 -7.148438 8.625 -6.859375 C 9.40625 -6.628906 10.003906 -6.238281 10.421875 -5.6875 C 10.835938 -5.132812 11.046875 -4.484375 11.046875 -3.734375 C 11.046875 -3.128906 10.914062 -2.566406 10.65625 -2.046875 C 10.40625 -1.535156 10.09375 -1.140625 9.71875 -0.859375 C 9.34375 -0.578125 8.875 -0.363281 8.3125 -0.21875 C 7.75 -0.0703125 7.054688 0 6.234375 0 Z M 3.03125 -7.46875 L 5.8125 -7.46875 C 6.5625 -7.46875 7.101562 -7.519531 7.4375 -7.625 C 7.875 -7.75 8.203125 -7.957031 8.421875 -8.25 C 8.640625 -8.550781 8.75 -8.929688 8.75 -9.390625 C 8.75 -9.816406 8.644531 -10.191406 8.4375 -10.515625 C 8.226562 -10.835938 7.929688 -11.054688 7.546875 -11.171875 C 7.171875 -11.296875 6.519531 -11.359375 5.59375 -11.359375 L 3.03125 -11.359375 Z M 3.03125 -1.515625 L 6.234375 -1.515625 C 6.785156 -1.515625 7.171875 -1.535156 7.390625 -1.578125 C 7.785156 -1.648438 8.113281 -1.769531 8.375 -1.9375 C 8.632812 -2.101562 8.847656 -2.34375 9.015625 -2.65625 C 9.191406 -2.96875 9.28125 -3.328125 9.28125 -3.734375 C 9.28125 -4.210938 9.15625 -4.628906 8.90625 -4.984375 C 8.664062 -5.335938 8.328125 -5.585938 7.890625 -5.734375 C 7.453125 -5.878906 6.820312 -5.953125 6 -5.953125 L 3.03125 -5.953125 Z M 3.03125 -1.515625 "/></g></g></g><g fill="#ffffff" fill-opacity="1"><g transform="translate(317.364613, 300.22085)"><g><path d="M 1.421875 0 L 1.421875 -12.890625 L 10.734375 -12.890625 L 10.734375 -11.359375 L 3.125 -11.359375 L 3.125 -7.421875 L 10.25 -7.421875 L 10.25 -5.90625 L 3.125 -5.90625 L 3.125 -1.515625 L 11.046875 -1.515625 L 11.046875 0 Z M 1.421875 0 "/></g></g></g><g fill="#ffffff" fill-opacity="1"><g transform="translate(336.570464, 300.22085)"><g><path d="M 1.640625 0 L 1.640625 -1.796875 L 3.4375 -1.796875 L 3.4375 0 Z M 1.640625 0 "/></g></g></g><g fill="#ffffff" fill-opacity="1"><g transform="translate(348.771433, 300.22085)"><g/></g></g><g fill="#ffffff" fill-opacity="1"><g transform="translate(360.972402, 300.22085)"><g><path d="M 1.3125 0 L 1.3125 -12.890625 L 3.03125 -12.890625 L 3.03125 -1.515625 L 9.375 -1.515625 L 9.375 0 Z M 1.3125 0 "/></g></g></g><g fill="#ffffff" fill-opacity="1"><g transform="translate(378.183136, 300.22085)"><g><path d="M 1.421875 0 L 1.421875 -12.890625 L 10.734375 -12.890625 L 10.734375 -11.359375 L 3.125 -11.359375 L 3.125 -7.421875 L 10.25 -7.421875 L 10.25 -5.90625 L 3.125 -5.90625 L 3.125 -1.515625 L 11.046875 -1.515625 L 11.046875 0 Z M 1.421875 0 "/></g></g></g><g fill="#ffffff" fill-opacity="1"><g transform="translate(397.388987, 300.22085)"><g><path d="M -0.03125 0 L 4.921875 -12.890625 L 6.765625 -12.890625 L 12.03125 0 L 10.09375 0 L 8.59375 -3.90625 L 3.203125 -3.90625 L 1.78125 0 Z M 3.6875 -5.296875 L 8.0625 -5.296875 L 6.71875 -8.859375 C 6.300781 -9.941406 5.992188 -10.832031 5.796875 -11.53125 C 5.640625 -10.707031 5.410156 -9.890625 5.109375 -9.078125 Z M 3.6875 -5.296875 "/></g></g></g><g fill="#ffffff" fill-opacity="1"><g transform="translate(416.594838, 300.22085)"><g><path d="M 1.421875 0 L 1.421875 -12.890625 L 7.125 -12.890625 C 8.269531 -12.890625 9.140625 -12.769531 9.734375 -12.53125 C 10.335938 -12.300781 10.816406 -11.894531 11.171875 -11.3125 C 11.535156 -10.726562 11.71875 -10.082031 11.71875 -9.375 C 11.71875 -8.457031 11.421875 -7.6875 10.828125 -7.0625 C 10.234375 -6.4375 9.320312 -6.035156 8.09375 -5.859375 C 8.539062 -5.640625 8.878906 -5.425781 9.109375 -5.21875 C 9.609375 -4.757812 10.082031 -4.1875 10.53125 -3.5 L 12.765625 0 L 10.625 0 L 8.921875 -2.6875 C 8.421875 -3.457031 8.007812 -4.046875 7.6875 -4.453125 C 7.363281 -4.867188 7.070312 -5.15625 6.8125 -5.3125 C 6.5625 -5.476562 6.304688 -5.59375 6.046875 -5.65625 C 5.847656 -5.695312 5.53125 -5.71875 5.09375 -5.71875 L 3.125 -5.71875 L 3.125 0 Z M 3.125 -7.203125 L 6.78125 -7.203125 C 7.5625 -7.203125 8.171875 -7.28125 8.609375 -7.4375 C 9.046875 -7.601562 9.378906 -7.863281 9.609375 -8.21875 C 9.835938 -8.570312 9.953125 -8.957031 9.953125 -9.375 C 9.953125 -9.976562 9.726562 -10.476562 9.28125 -10.875 C 8.84375 -11.269531 8.148438 -11.46875 7.203125 -11.46875 L 3.125 -11.46875 Z M 3.125 -7.203125 "/></g></g></g><g fill="#ffffff" fill-opacity="1"><g transform="translate(436.793865, 300.22085)"><g><path d="M 1.375 0 L 1.375 -12.890625 L 3.125 -12.890625 L 9.890625 -2.765625 L 9.890625 -12.890625 L 11.515625 -12.890625 L 11.515625 0 L 9.78125 0 L 3 -10.125 L 3 0 Z M 1.375 0 "/></g></g></g><g fill="#ffffff" fill-opacity="1"><g transform="translate(456.992869, 300.22085)"><g><path d="M 1.640625 0 L 1.640625 -1.796875 L 3.4375 -1.796875 L 3.4375 0 Z M 1.640625 0 "/></g></g></g><g fill="#ffffff" fill-opacity="1"><g transform="translate(469.193826, 300.22085)"><g/></g></g><g fill="#ffffff" fill-opacity="1"><g transform="translate(481.394807, 300.22085)"><g><path d="M 10.578125 -4.515625 L 12.28125 -4.09375 C 11.925781 -2.6875 11.285156 -1.613281 10.359375 -0.875 C 9.429688 -0.144531 8.296875 0.21875 6.953125 0.21875 C 5.566406 0.21875 4.4375 -0.0625 3.5625 -0.625 C 2.695312 -1.195312 2.035156 -2.015625 1.578125 -3.078125 C 1.117188 -4.148438 0.890625 -5.304688 0.890625 -6.546875 C 0.890625 -7.878906 1.144531 -9.046875 1.65625 -10.046875 C 2.175781 -11.046875 2.910156 -11.804688 3.859375 -12.328125 C 4.804688 -12.847656 5.847656 -13.109375 6.984375 -13.109375 C 8.265625 -13.109375 9.34375 -12.78125 10.21875 -12.125 C 11.101562 -11.46875 11.71875 -10.546875 12.0625 -9.359375 L 10.390625 -8.953125 C 10.085938 -9.890625 9.648438 -10.570312 9.078125 -11 C 8.515625 -11.425781 7.800781 -11.640625 6.9375 -11.640625 C 5.945312 -11.640625 5.117188 -11.398438 4.453125 -10.921875 C 3.796875 -10.453125 3.332031 -9.816406 3.0625 -9.015625 C 2.789062 -8.222656 2.65625 -7.398438 2.65625 -6.546875 C 2.65625 -5.453125 2.8125 -4.492188 3.125 -3.671875 C 3.445312 -2.859375 3.945312 -2.25 4.625 -1.84375 C 5.300781 -1.4375 6.03125 -1.234375 6.8125 -1.234375 C 7.769531 -1.234375 8.578125 -1.507812 9.234375 -2.0625 C 9.898438 -2.613281 10.347656 -3.429688 10.578125 -4.515625 Z M 10.578125 -4.515625 "/></g></g></g><g fill="#ffffff" fill-opacity="1"><g transform="translate(501.593833, 300.22085)"><g><path d="M 0.875 -6.28125 C 0.875 -8.414062 1.445312 -10.085938 2.59375 -11.296875 C 3.738281 -12.503906 5.222656 -13.109375 7.046875 -13.109375 C 8.234375 -13.109375 9.300781 -12.820312 10.25 -12.25 C 11.207031 -11.6875 11.9375 -10.894531 12.4375 -9.875 C 12.9375 -8.863281 13.1875 -7.710938 13.1875 -6.421875 C 13.1875 -5.117188 12.921875 -3.953125 12.390625 -2.921875 C 11.867188 -1.890625 11.125 -1.109375 10.15625 -0.578125 C 9.1875 -0.046875 8.144531 0.21875 7.03125 0.21875 C 5.820312 0.21875 4.738281 -0.0703125 3.78125 -0.65625 C 2.820312 -1.238281 2.097656 -2.035156 1.609375 -3.046875 C 1.117188 -4.066406 0.875 -5.144531 0.875 -6.28125 Z M 2.625 -6.25 C 2.625 -4.695312 3.039062 -3.472656 3.875 -2.578125 C 4.71875 -1.679688 5.765625 -1.234375 7.015625 -1.234375 C 8.304688 -1.234375 9.363281 -1.6875 10.1875 -2.59375 C 11.019531 -3.5 11.4375 -4.78125 11.4375 -6.4375 C 11.4375 -7.476562 11.257812 -8.390625 10.90625 -9.171875 C 10.550781 -9.960938 10.03125 -10.570312 9.34375 -11 C 8.664062 -11.425781 7.898438 -11.640625 7.046875 -11.640625 C 5.835938 -11.640625 4.796875 -11.222656 3.921875 -10.390625 C 3.054688 -9.566406 2.625 -8.1875 2.625 -6.25 Z M 2.625 -6.25 "/></g></g></g><g fill="#ffffff" fill-opacity="1"><g transform="translate(522.79479, 300.22085)"><g><path d="M 1.375 0 L 1.375 -12.890625 L 3.125 -12.890625 L 9.890625 -2.765625 L 9.890625 -12.890625 L 11.515625 -12.890625 L 11.515625 0 L 9.78125 0 L 3 -10.125 L 3 0 Z M 1.375 0 "/></g></g></g><g fill="#ffffff" fill-opacity="1"><g transform="translate(542.993793, 300.22085)"><g><path d="M 11.15625 -1.375 C 11.945312 -0.832031 12.675781 -0.4375 13.34375 -0.1875 L 12.84375 1 C 11.914062 0.664062 10.992188 0.140625 10.078125 -0.578125 C 9.117188 -0.046875 8.0625 0.21875 6.90625 0.21875 C 5.738281 0.21875 4.679688 -0.0625 3.734375 -0.625 C 2.785156 -1.1875 2.054688 -1.976562 1.546875 -3 C 1.035156 -4.019531 0.78125 -5.164062 0.78125 -6.4375 C 0.78125 -7.707031 1.035156 -8.863281 1.546875 -9.90625 C 2.066406 -10.957031 2.800781 -11.753906 3.75 -12.296875 C 4.695312 -12.835938 5.757812 -13.109375 6.9375 -13.109375 C 8.132812 -13.109375 9.207031 -12.828125 10.15625 -12.265625 C 11.113281 -11.703125 11.84375 -10.910156 12.34375 -9.890625 C 12.84375 -8.878906 13.09375 -7.734375 13.09375 -6.453125 C 13.09375 -5.390625 12.929688 -4.4375 12.609375 -3.59375 C 12.285156 -2.75 11.800781 -2.007812 11.15625 -1.375 Z M 7.40625 -3.5625 C 8.382812 -3.28125 9.191406 -2.867188 9.828125 -2.328125 C 10.835938 -3.242188 11.34375 -4.617188 11.34375 -6.453125 C 11.34375 -7.492188 11.164062 -8.40625 10.8125 -9.1875 C 10.457031 -9.96875 9.9375 -10.570312 9.25 -11 C 8.570312 -11.425781 7.804688 -11.640625 6.953125 -11.640625 C 5.679688 -11.640625 4.625 -11.203125 3.78125 -10.328125 C 2.945312 -9.460938 2.53125 -8.164062 2.53125 -6.4375 C 2.53125 -4.757812 2.941406 -3.472656 3.765625 -2.578125 C 4.597656 -1.679688 5.660156 -1.234375 6.953125 -1.234375 C 7.554688 -1.234375 8.128906 -1.347656 8.671875 -1.578125 C 8.140625 -1.921875 7.578125 -2.171875 6.984375 -2.328125 Z M 7.40625 -3.5625 "/></g></g></g><g fill="#ffffff" fill-opacity="1"><g transform="translate(564.194773, 300.22085)"><g><path d="M 9.84375 -12.890625 L 11.546875 -12.890625 L 11.546875 -5.4375 C 11.546875 -4.144531 11.398438 -3.117188 11.109375 -2.359375 C 10.816406 -1.597656 10.285156 -0.976562 9.515625 -0.5 C 8.753906 -0.0195312 7.753906 0.21875 6.515625 0.21875 C 5.304688 0.21875 4.316406 0.0078125 3.546875 -0.40625 C 2.785156 -0.820312 2.238281 -1.421875 1.90625 -2.203125 C 1.582031 -2.992188 1.421875 -4.070312 1.421875 -5.4375 L 1.421875 -12.890625 L 3.125 -12.890625 L 3.125 -5.453125 C 3.125 -4.328125 3.226562 -3.5 3.4375 -2.96875 C 3.644531 -2.445312 4 -2.039062 4.5 -1.75 C 5.007812 -1.457031 5.628906 -1.3125 6.359375 -1.3125 C 7.617188 -1.3125 8.515625 -1.597656 9.046875 -2.171875 C 9.578125 -2.742188 9.84375 -3.835938 9.84375 -5.453125 Z M 9.84375 -12.890625 "/></g></g></g><g fill="#ffffff" fill-opacity="1"><g transform="translate(584.3938, 300.22085)"><g><path d="M 1.421875 0 L 1.421875 -12.890625 L 10.734375 -12.890625 L 10.734375 -11.359375 L 3.125 -11.359375 L 3.125 -7.421875 L 10.25 -7.421875 L 10.25 -5.90625 L 3.125 -5.90625 L 3.125 -1.515625 L 11.046875 -1.515625 L 11.046875 0 Z M 1.421875 0 "/></g></g></g><g fill="#ffffff" fill-opacity="1"><g transform="translate(603.599639, 300.22085)"><g><path d="M 1.421875 0 L 1.421875 -12.890625 L 7.125 -12.890625 C 8.269531 -12.890625 9.140625 -12.769531 9.734375 -12.53125 C 10.335938 -12.300781 10.816406 -11.894531 11.171875 -11.3125 C 11.535156 -10.726562 11.71875 -10.082031 11.71875 -9.375 C 11.71875 -8.457031 11.421875 -7.6875 10.828125 -7.0625 C 10.234375 -6.4375 9.320312 -6.035156 8.09375 -5.859375 C 8.539062 -5.640625 8.878906 -5.425781 9.109375 -5.21875 C 9.609375 -4.757812 10.082031 -4.1875 10.53125 -3.5 L 12.765625 0 L 10.625 0 L 8.921875 -2.6875 C 8.421875 -3.457031 8.007812 -4.046875 7.6875 -4.453125 C 7.363281 -4.867188 7.070312 -5.15625 6.8125 -5.3125 C 6.5625 -5.476562 6.304688 -5.59375 6.046875 -5.65625 C 5.847656 -5.695312 5.53125 -5.71875 5.09375 -5.71875 L 3.125 -5.71875 L 3.125 0 Z M 3.125 -7.203125 L 6.78125 -7.203125 C 7.5625 -7.203125 8.171875 -7.28125 8.609375 -7.4375 C 9.046875 -7.601562 9.378906 -7.863281 9.609375 -8.21875 C 9.835938 -8.570312 9.953125 -8.957031 9.953125 -9.375 C 9.953125 -9.976562 9.726562 -10.476562 9.28125 -10.875 C 8.84375 -11.269531 8.148438 -11.46875 7.203125 -11.46875 L 3.125 -11.46875 Z M 3.125 -7.203125 "/></g></g></g><g fill="#ffffff" fill-opacity="1"><g transform="translate(623.798643, 300.22085)"><g><path d="M 1.640625 0 L 1.640625 -1.796875 L 3.4375 -1.796875 L 3.4375 0 Z M 1.640625 0 "/></g></g></g></svg>